<svg width="40" height="40" viewBox="0 0 40 40" fill="none" xmlns="http://www.w3.org/2000/svg">
<path opacity="0.2" d="M37.5004 9.47811C36.1396 11.4263 34.4418 13.1158 32.487 14.4671L32.4869 14.4671C32.3633 17.8844 31.3657 21.213 29.5896 24.1351C27.8134 27.0572 25.3179 29.4752 22.3413 31.1584C19.3647 32.8416 16.0063 33.7338 12.5868 33.7497C9.16728 33.7656 5.80075 32.9048 2.80859 31.2494L2.80961 31.2476C6.71687 31.1934 10.5217 29.9903 13.7497 27.7881L13.7496 27.7883C10.2942 25.4331 7.66238 22.0557 6.22323 18.1294C4.78408 14.2031 4.60974 9.92489 5.72463 5.89453L5.72457 5.89457C7.3214 8.35372 9.43946 10.4316 11.9287 11.9811C14.418 13.5306 17.2175 14.5138 20.129 14.8609L20.1285 14.861C19.8219 13.3994 20.0487 11.8764 20.7677 10.5675C21.4867 9.25868 22.6506 8.25045 24.0486 7.72534C25.4466 7.20022 26.9864 7.1929 28.3893 7.70471C29.7922 8.21652 30.9656 9.21364 31.697 10.5156L31.697 10.5163C33.672 10.4574 35.6275 10.1075 37.5004 9.47811Z" fill="#21BA9E"/>
<path d="M37.5004 9.47811C36.1396 11.4263 34.4418 13.1158 32.487 14.4671L32.4869 14.4671C32.3633 17.8844 31.3657 21.213 29.5896 24.1351C27.8134 27.0572 25.3179 29.4752 22.3413 31.1584C19.3647 32.8416 16.0063 33.7338 12.5868 33.7497C9.16728 33.7656 5.80075 32.9048 2.80859 31.2494L2.80961 31.2476C6.71687 31.1934 10.5217 29.9903 13.7497 27.7881L13.7496 27.7883C10.2942 25.4331 7.66238 22.0557 6.22323 18.1294C4.78408 14.2031 4.60974 9.92489 5.72463 5.89453L5.72457 5.89457C7.3214 8.35372 9.43946 10.4316 11.9287 11.9811C14.418 13.5306 17.2175 14.5138 20.129 14.8609L20.1285 14.861C19.8219 13.3994 20.0487 11.8764 20.7677 10.5675C21.4867 9.25868 22.6506 8.25045 24.0486 7.72534C25.4466 7.20022 26.9864 7.1929 28.3893 7.70471C29.7922 8.21652 30.9656 9.21364 31.697 10.5156L31.697 10.5163C33.672 10.4574 35.6275 10.1075 37.5004 9.47811" stroke="#21BA9E" stroke-width="2" stroke-linecap="round" stroke-linejoin="round"/>
</svg>
