<svg width="131" height="45" viewBox="0 0 131 45" fill="none" xmlns="http://www.w3.org/2000/svg">
<path d="M10.0703 5.60156C10.0078 4.97135 9.73958 4.48177 9.26563 4.13281C8.79167 3.78385 8.14844 3.60937 7.33594 3.60937C6.78385 3.60937 6.31771 3.6875 5.9375 3.84375C5.55729 3.99479 5.26563 4.20573 5.0625 4.47656C4.86458 4.7474 4.76563 5.05469 4.76563 5.39844C4.75521 5.6849 4.8151 5.9349 4.94531 6.14844C5.08073 6.36198 5.26563 6.54687 5.5 6.70312C5.73438 6.85417 6.00521 6.98698 6.3125 7.10156C6.61979 7.21094 6.94792 7.30469 7.29688 7.38281L8.73438 7.72656C9.43229 7.88281 10.0729 8.09115 10.6562 8.35156C11.2396 8.61198 11.7448 8.93229 12.1719 9.3125C12.599 9.69271 12.9297 10.1406 13.1641 10.6562C13.4036 11.1719 13.526 11.763 13.5312 12.4297C13.526 13.4089 13.276 14.2578 12.7813 14.9766C12.2917 15.6901 11.5833 16.2448 10.6562 16.6406C9.73438 17.0312 8.6224 17.2266 7.32031 17.2266C6.02865 17.2266 4.90365 17.0286 3.94531 16.6328C2.99219 16.237 2.2474 15.651 1.71094 14.875C1.17969 14.0937 0.901042 13.1276 0.875 11.9766H4.14844C4.1849 12.513 4.33854 12.9609 4.60938 13.3203C4.88542 13.6745 5.2526 13.9427 5.71094 14.125C6.17448 14.3021 6.69792 14.3906 7.28125 14.3906C7.85417 14.3906 8.35156 14.3073 8.77344 14.1406C9.20052 13.974 9.53125 13.7422 9.76563 13.4453C10 13.1484 10.1172 12.8073 10.1172 12.4219C10.1172 12.0625 10.0104 11.7604 9.79688 11.5156C9.58854 11.2708 9.28125 11.0625 8.875 10.8906C8.47396 10.7187 7.98177 10.5625 7.39844 10.4219L5.65625 9.98437C4.30729 9.65625 3.24219 9.14323 2.46094 8.44531C1.67969 7.7474 1.29167 6.80729 1.29688 5.625C1.29167 4.65625 1.54948 3.8099 2.07031 3.08594C2.59635 2.36198 3.31771 1.79687 4.23438 1.39062C5.15104 0.984374 6.19271 0.781249 7.35938 0.781249C8.54688 0.781249 9.58333 0.984374 10.4688 1.39062C11.3594 1.79687 12.0521 2.36198 12.5469 3.08594C13.0417 3.8099 13.2969 4.64844 13.3125 5.60156H10.0703ZM19.1066 17V1H25.4191C26.6327 1 27.6665 1.23177 28.5207 1.69531C29.3749 2.15365 30.0259 2.79167 30.4738 3.60937C30.927 4.42187 31.1535 5.35937 31.1535 6.42187C31.1535 7.48437 30.9243 8.42187 30.466 9.23437C30.0077 10.0469 29.3436 10.6797 28.4738 11.1328C27.6092 11.5859 26.5624 11.8125 25.3332 11.8125H21.3098V9.10156H24.7863C25.4374 9.10156 25.9738 8.98958 26.3957 8.76562C26.8228 8.53646 27.1405 8.22135 27.3488 7.82031C27.5624 7.41406 27.6691 6.94792 27.6691 6.42187C27.6691 5.89062 27.5624 5.42708 27.3488 5.03125C27.1405 4.63021 26.8228 4.32031 26.3957 4.10156C25.9686 3.8776 25.427 3.76562 24.7707 3.76562H22.4895V17H19.1066ZM37.5609 17H33.9359L39.4594 1H43.8187L49.3344 17H45.7094L41.7016 4.65625H41.5766L37.5609 17ZM37.3344 10.7109H45.8969V13.3516H37.3344V10.7109ZM54.5602 17V1H60.8727C62.081 1 63.1122 1.21615 63.9664 1.64844C64.8258 2.07552 65.4794 2.68229 65.9273 3.46875C66.3805 4.25 66.607 5.16927 66.607 6.22656C66.607 7.28906 66.3779 8.20312 65.9195 8.96875C65.4612 9.72917 64.7971 10.3125 63.9273 10.7187C63.0628 11.125 62.0159 11.3281 60.7867 11.3281H56.5602V8.60937H60.2398C60.8857 8.60937 61.4221 8.52083 61.8492 8.34375C62.2763 8.16667 62.594 7.90104 62.8023 7.54688C63.0159 7.19271 63.1227 6.7526 63.1227 6.22656C63.1227 5.69531 63.0159 5.2474 62.8023 4.88281C62.594 4.51823 62.2737 4.24219 61.8414 4.05469C61.4143 3.86198 60.8753 3.76562 60.2242 3.76562H57.943V17H54.5602ZM63.2008 9.71875L67.1773 17H63.443L59.5523 9.71875H63.2008ZM72.2977 17V1H78.6102C79.8185 1 80.8497 1.21615 81.7039 1.64844C82.5633 2.07552 83.2169 2.68229 83.6648 3.46875C84.118 4.25 84.3445 5.16927 84.3445 6.22656C84.3445 7.28906 84.1154 8.20312 83.657 8.96875C83.1987 9.72917 82.5346 10.3125 81.6648 10.7187C80.8003 11.125 79.7534 11.3281 78.5242 11.3281H74.2977V8.60937H77.9773C78.6232 8.60937 79.1596 8.52083 79.5867 8.34375C80.0138 8.16667 80.3315 7.90104 80.5398 7.54688C80.7534 7.19271 80.8602 6.7526 80.8602 6.22656C80.8602 5.69531 80.7534 5.2474 80.5398 4.88281C80.3315 4.51823 80.0112 4.24219 79.5789 4.05469C79.1518 3.86198 78.6128 3.76562 77.9617 3.76562H75.6805V17H72.2977ZM80.9383 9.71875L84.9148 17H81.1805L77.2898 9.71875H80.9383ZM104.738 9C104.738 10.7448 104.408 12.2292 103.746 13.4531C103.09 14.6771 102.194 15.612 101.059 16.2578C99.9284 16.8984 98.6576 17.2187 97.2461 17.2187C95.8242 17.2187 94.5482 16.8958 93.418 16.25C92.2878 15.6042 91.3945 14.6693 90.7383 13.4453C90.082 12.2214 89.7539 10.7396 89.7539 9C89.7539 7.25521 90.082 5.77083 90.7383 4.54688C91.3945 3.32292 92.2878 2.39062 93.418 1.75C94.5482 1.10417 95.8242 0.781249 97.2461 0.781249C98.6576 0.781249 99.9284 1.10417 101.059 1.75C102.194 2.39062 103.09 3.32292 103.746 4.54688C104.408 5.77083 104.738 7.25521 104.738 9ZM101.309 9C101.309 7.86979 101.139 6.91667 100.801 6.14062C100.467 5.36458 99.9961 4.77604 99.3867 4.375C98.7773 3.97396 98.0638 3.77344 97.2461 3.77344C96.4284 3.77344 95.7148 3.97396 95.1055 4.375C94.4961 4.77604 94.0221 5.36458 93.6836 6.14062C93.3503 6.91667 93.1836 7.86979 93.1836 9C93.1836 10.1302 93.3503 11.0833 93.6836 11.8594C94.0221 12.6354 94.4961 13.224 95.1055 13.625C95.7148 14.026 96.4284 14.2266 97.2461 14.2266C98.0638 14.2266 98.7773 14.026 99.3867 13.625C99.9961 13.224 100.467 12.6354 100.801 11.8594C101.139 11.0833 101.309 10.1302 101.309 9ZM113.544 17L108.966 1H112.661L115.31 12.1172H115.443L118.364 1H121.529L124.443 12.1406H124.583L127.232 1H130.927L126.349 17H123.052L120.005 6.53906H119.88L116.841 17H113.544ZM1.39062 44V28H12.1719V30.7891H4.77344V34.6016H11.6172V37.3906H4.77344V41.2109H12.2031V44H1.39062ZM18.1613 44V28H21.5441V41.2109H28.4035V44H18.1613ZM33.9437 44V28H44.725V30.7891H37.3266V34.6016H44.1703V37.3906H37.3266V41.2109H44.7562V44H33.9437ZM64.8316 33.6016H61.4098C61.3473 33.1589 61.2197 32.7656 61.027 32.4219C60.8342 32.0729 60.5869 31.776 60.2848 31.5312C59.9827 31.2865 59.6337 31.099 59.2379 30.9687C58.8473 30.8385 58.4228 30.7734 57.9645 30.7734C57.1363 30.7734 56.415 30.9792 55.8004 31.3906C55.1858 31.7969 54.7092 32.3906 54.3707 33.1719C54.0322 33.9479 53.8629 34.8906 53.8629 36C53.8629 37.1406 54.0322 38.099 54.3707 38.875C54.7145 39.651 55.1936 40.237 55.8082 40.6328C56.4228 41.0286 57.1337 41.2266 57.941 41.2266C58.3941 41.2266 58.8134 41.1667 59.1988 41.0469C59.5895 40.9271 59.9358 40.7526 60.2379 40.5234C60.54 40.2891 60.79 40.0052 60.9879 39.6719C61.191 39.3385 61.3316 38.9583 61.4098 38.5312L64.8316 38.5469C64.7431 39.2812 64.5217 39.9896 64.1676 40.6719C63.8186 41.349 63.3473 41.9557 62.7535 42.4922C62.165 43.0234 61.4619 43.4453 60.6441 43.7578C59.8316 44.0651 58.9124 44.2187 57.8863 44.2187C56.4592 44.2187 55.1832 43.8958 54.0582 43.25C52.9384 42.6042 52.053 41.6693 51.402 40.4453C50.7561 39.2214 50.4332 37.7396 50.4332 36C50.4332 34.2552 50.7613 32.7708 51.4176 31.5469C52.0738 30.3229 52.9645 29.3906 54.0895 28.75C55.2145 28.1042 56.4801 27.7812 57.8863 27.7812C58.8134 27.7812 59.6728 27.9115 60.4645 28.1719C61.2613 28.4323 61.9671 28.8125 62.5816 29.3125C63.1962 29.8073 63.6962 30.4141 64.0816 31.1328C64.4723 31.8516 64.7223 32.6745 64.8316 33.6016ZM69.948 30.7891V28H83.0887V30.7891H78.1902V44H74.8465V30.7891H69.948ZM88.5527 44V28H94.8652C96.0736 28 97.1048 28.2161 97.959 28.6484C98.8184 29.0755 99.472 29.6823 99.9199 30.4688C100.373 31.25 100.6 32.1693 100.6 33.2266C100.6 34.2891 100.37 35.2031 99.9121 35.9687C99.4538 36.7292 98.7897 37.3125 97.9199 37.7187C97.0553 38.125 96.0085 38.3281 94.7793 38.3281H90.5527V35.6094H94.2324C94.8783 35.6094 95.4147 35.5208 95.8418 35.3438C96.2689 35.1667 96.5866 34.901 96.7949 34.5469C97.0085 34.1927 97.1152 33.7526 97.1152 33.2266C97.1152 32.6953 97.0085 32.2474 96.7949 31.8828C96.5866 31.5182 96.2663 31.2422 95.834 31.0547C95.4069 30.862 94.8678 30.7656 94.2168 30.7656H91.9355V44H88.5527ZM97.1934 36.7188L101.17 44H97.4355L93.5449 36.7188H97.1934ZM109.673 28V44H106.29V28H109.673ZM129.873 33.6016H126.452C126.389 33.1589 126.261 32.7656 126.069 32.4219C125.876 32.0729 125.629 31.776 125.327 31.5312C125.024 31.2865 124.676 31.099 124.28 30.9687C123.889 30.8385 123.465 30.7734 123.006 30.7734C122.178 30.7734 121.457 30.9792 120.842 31.3906C120.228 31.7969 119.751 32.3906 119.412 33.1719C119.074 33.9479 118.905 34.8906 118.905 36C118.905 37.1406 119.074 38.099 119.412 38.875C119.756 39.651 120.235 40.237 120.85 40.6328C121.465 41.0286 122.176 41.2266 122.983 41.2266C123.436 41.2266 123.855 41.1667 124.241 41.0469C124.631 40.9271 124.978 40.7526 125.28 40.5234C125.582 40.2891 125.832 40.0052 126.03 39.6719C126.233 39.3385 126.373 38.9583 126.452 38.5312L129.873 38.5469C129.785 39.2812 129.564 39.9896 129.209 40.6719C128.86 41.349 128.389 41.9557 127.795 42.4922C127.207 43.0234 126.504 43.4453 125.686 43.7578C124.873 44.0651 123.954 44.2187 122.928 44.2187C121.501 44.2187 120.225 43.8958 119.1 43.25C117.98 42.6042 117.095 41.6693 116.444 40.4453C115.798 39.2214 115.475 37.7396 115.475 36C115.475 34.2552 115.803 32.7708 116.459 31.5469C117.116 30.3229 118.006 29.3906 119.131 28.75C120.256 28.1042 121.522 27.7812 122.928 27.7812C123.855 27.7812 124.715 27.9115 125.506 28.1719C126.303 28.4323 127.009 28.8125 127.623 29.3125C128.238 29.8073 128.738 30.4141 129.123 31.1328C129.514 31.8516 129.764 32.6745 129.873 33.6016Z" fill="white"/>
</svg>
