<svg width="40" height="40" viewBox="0 0 40 40" fill="none" xmlns="http://www.w3.org/2000/svg">
<path opacity="0.2" d="M32.5 6.25H7.5C6.80964 6.25 6.25 6.80964 6.25 7.5V32.5C6.25 33.1904 6.80964 33.75 7.5 33.75H32.5C33.1904 33.75 33.75 33.1904 33.75 32.5V7.5C33.75 6.80964 33.1904 6.25 32.5 6.25Z" fill="#21BA9E"/>
<path d="M32.5 6.25H7.5C6.80964 6.25 6.25 6.80964 6.25 7.5V32.5C6.25 33.1904 6.80964 33.75 7.5 33.75H32.5C33.1904 33.75 33.75 33.1904 33.75 32.5V7.5C33.75 6.80964 33.1904 6.25 32.5 6.25Z" stroke="#21BA9E" stroke-width="2" stroke-linecap="round" stroke-linejoin="round"/>
<path d="M18.75 17.5V27.5" stroke="#21BA9E" stroke-width="2" stroke-linecap="round" stroke-linejoin="round"/>
<path d="M13.75 17.5V27.5" stroke="#21BA9E" stroke-width="2" stroke-linecap="round" stroke-linejoin="round"/>
<path d="M18.75 21.875C18.75 20.7147 19.2109 19.6019 20.0314 18.7814C20.8519 17.9609 21.9647 17.5 23.125 17.5C24.2853 17.5 25.3981 17.9609 26.2186 18.7814C27.0391 19.6019 27.5 20.7147 27.5 21.875V27.5" stroke="#21BA9E" stroke-width="2" stroke-linecap="round" stroke-linejoin="round"/>
<path d="M13.75 14.375C14.7855 14.375 15.625 13.5355 15.625 12.5C15.625 11.4645 14.7855 10.625 13.75 10.625C12.7145 10.625 11.875 11.4645 11.875 12.5C11.875 13.5355 12.7145 14.375 13.75 14.375Z" fill="#21BA9E"/>
</svg>
