<svg width="40" height="40" viewBox="0 0 40 40" fill="none" xmlns="http://www.w3.org/2000/svg">
<path opacity="0.2" d="M20 35C28.2843 35 35 28.2843 35 20C35 11.7157 28.2843 5 20 5C11.7157 5 5 11.7157 5 20C5 28.2843 11.7157 35 20 35Z" fill="#21BA9E"/>
<path d="M20 35C28.2843 35 35 28.2843 35 20C35 11.7157 28.2843 5 20 5C11.7157 5 5 11.7157 5 20C5 28.2843 11.7157 35 20 35Z" stroke="#21BA9E" stroke-width="2" stroke-linecap="round" stroke-linejoin="round"/>
<path d="M26.25 13.75H23.75C22.7554 13.75 21.8016 14.1451 21.0983 14.8484C20.3951 15.5516 20 16.5054 20 17.5V35" stroke="#21BA9E" stroke-width="2" stroke-linecap="round" stroke-linejoin="round"/>
<path d="M15 22.5H25" stroke="#21BA9E" stroke-width="2" stroke-linecap="round" stroke-linejoin="round"/>
</svg>
