<svg width="40" height="40" viewBox="0 0 40 40" fill="none" xmlns="http://www.w3.org/2000/svg">
<path opacity="0.2" d="M34.8079 10.6248C34.5898 9.25161 33.2449 7.98017 31.8747 7.82308C23.9816 6.95871 16.0177 6.95871 8.12467 7.82308C6.75397 7.98014 5.40982 9.25173 5.19147 10.6248C4.23566 16.8382 4.23566 23.1613 5.19147 29.3748C5.40974 30.7479 6.75404 32.0195 8.12467 32.1765C16.0177 33.0409 23.9816 33.0409 31.8747 32.1765C33.2456 32.0196 34.5897 30.7478 34.8079 29.3748C35.7637 23.1613 35.7637 16.8382 34.8079 10.6248ZM17.4997 24.9998V14.9998L24.9997 19.9998L17.4997 24.9998Z" fill="#21BA9E"/>
<path d="M31.8747 32.1765C23.9816 33.0409 16.0177 33.0409 8.12466 32.1765C6.75404 32.0195 5.40974 30.7479 5.19147 29.3748C4.23566 23.1613 4.23566 16.8382 5.19147 10.6248C5.40982 9.25173 6.75397 7.98014 8.12466 7.82308C16.0177 6.95871 23.9816 6.95871 31.8747 7.82308C33.2449 7.98017 34.5898 9.25161 34.8079 10.6248C35.7637 16.8382 35.7637 23.1613 34.8079 29.3748C34.5897 30.7478 33.2456 32.0196 31.8747 32.1765Z" stroke="#21BA9E" stroke-width="2" stroke-linecap="round" stroke-linejoin="round"/>
<path d="M25 20L17.5 15V25L25 20Z" stroke="#21BA9E" stroke-width="2" stroke-linecap="round" stroke-linejoin="round"/>
</svg>
